<svg width="1.2em" height="1.2em" viewBox="0 0 7.94 7.94" xmlns="http://www.w3.org/2000/svg"><path transform="scale(.265)" d="m15 1.4.006.006c-4.72 0-8.42.45-10.9.982-1.26.267-2.22.55-2.89.818a4.417 4.417 0 0 0-.797.398 1.236 1.236 0 0 0-.264.225.585.585 0 0 0-.16.396v4.19c0 .168.12.354.232.424.11.07.202.083.283.094.068.008.13.009.193.007l.002 2.47c0 1.19.966 2.16 2.15 2.16h.635c.623 0 1.19-.272 1.58-.699.385.718 1.13 1.21 1.98 1.21h.676c.786 0 1.47-.416 1.88-1.04.347.956 1.21 1.65 2.23 1.65h.725c1.3 0 2.34-1.12 2.39-2.47.058 1.35 1.09 2.47 2.39 2.47l.727-.001c1.03 0 1.88-.694 2.23-1.65.408.623 1.09 1.04 1.88 1.04h.678c.854 0 1.59-.491 1.98-1.21.393.43.957.699 1.58.699h.635c1.19 0 2.15-.972 2.15-2.16v-2.47c.072.002.146.001.225-.008.081-.01.17-.024.28-.094s.235-.256.235-.424v-4.19a.606.606 0 0 0-.156-.395 1.24 1.24 0 0 0-.258-.227 4.293 4.293 0 0 0-.783-.4c-.657-.27-1.61-.554-2.85-.822-2.49-.533-6.12-.982-10.9-.982zm.006.82c4.69 0 8.28.447 10.7.969 1.21.259 2.12.536 2.71.777.295.121.51.235.63.316.038.025.046.035.061.049 0 1.08-.007 2.78 0 3.82l-.025-.002a2.157 2.157 0 0 0-2.05-1.51l-.635-.002a2.14 2.14 0 0 0-1.7.844 2.244 2.244 0 0 0-1.86-1.01h-.678c-.846 0-1.58.489-1.97 1.2-.393-.843-1.19-1.43-2.14-1.43h-.725c-1.31 0-2.35 1.13-2.39 2.49-.048-1.36-1.08-2.5-2.39-2.49h-.727c-.945 0-1.75.59-2.14 1.43-.389-.71-1.12-1.2-1.97-1.2h-.678c-.771 0-1.45.405-1.86 1.01a2.15 2.15 0 0 0-1.7-.844h-.635c-.952 0-1.76.633-2.05 1.5.007-1.02 0-2.71 0-3.78.017-.015.024-.023.063-.049a3.7 3.7 0 0 1 .645-.318c.605-.242 1.54-.52 2.76-.78 2.45-.519 6.08-.968 10.8-.968l-.012-.017zm-2.47 4.8c.858 0 1.58.772 1.58 1.78v3.31c0 1.01-.724 1.78-1.58 1.78h-.727c-.858 0-1.58-.77-1.58-1.78l-.002-3.31c0-1.01.726-1.78 1.58-1.78l.725-.004zm4.8 0h.725c.858 0 1.58.772 1.58 1.78v3.31c-.001 1.01-.726 1.78-1.58 1.78l-.725.002c-.858 0-1.58-.77-1.58-1.78v-.002l.002-3.31c0-1.01.724-1.78 1.58-1.78v-.002zm-10.3.238h.674c.797 0 1.45.672 1.45 1.53v2.95c0 .861-.652 1.54-1.45 1.54h-.678c-.775 0-1.41-.635-1.44-1.46a2.2 2.2 0 0 0 .039-.393l-.002-2.65a2.14 2.14 0 0 0-.018-.262c.126-.722.72-1.25 1.43-1.25zm15.1 0h.678c.707 0 1.3.528 1.42 1.25-.01.085-.018.173-.018.262v2.65c0 .134.013.264.037.393-.038.824-.673 1.46-1.44 1.46h-.678c-.797 0-1.45-.674-1.45-1.54v-2.95c0-.861.653-1.53 1.45-1.53zm-19.3.168.633.002c.654 0 1.19.46 1.31 1.08a2.45 2.45 0 0 0-.02.285v2.94l.002.012a1.324 1.324 0 0 1-1.29 1.01h-.635c-.744 0-1.34-.592-1.34-1.34V8.756c0-.748.594-1.34 1.34-1.34zm23.6.002h.635c.744 0 1.34.597 1.34 1.34v2.65a1.332 1.332 0 0 1-1.34 1.34h-.635c-.627 0-1.15-.432-1.29-1.01v-2.95c0-.096-.007-.192-.018-.285.12-.62.657-1.08 1.31-1.08V7.43zm-25.1 6.83-.88 1.8 2.01.984c-.951.209-1.68 1.03-1.68 2.02v2.03a1.37 1.37 0 0 0-.228.008c-.081.01-.17.023-.281.094s-.237.256-.234.424c.011.963 0 3.05 0 4.19 0 .182.083.305.16.396.077.09.163.159.264.227.2.135.46.263.797.396.252.1.547.204.883.309l-1.69.826.879 1.8 3.9-1.9c2.45.437 5.76.773 9.85.773 3.96 0 7.18-.318 9.58-.734l3.81 1.87.879-1.8-1.59-.775c.402-.122.752-.244 1.04-.363a4.04 4.04 0 0 0 .78-.4c.1-.068.185-.137.26-.227a.59.59 0 0 0 .157-.393c0-1.16-.011-3.25 0-4.2a.557.557 0 0 0-.234-.422.622.622 0 0 0-.281-.096 1.383 1.383 0 0 0-.191-.006v-1.96c-.001-1.09-.888-1.98-1.99-2.06l2.04-.998-.88-1.8-8.59 4.2a2.326 2.326 0 0 0-1.72-.76h-.724c-1.29 0-2.34 1.07-2.39 2.38-.058-1.31-1.1-2.38-2.39-2.38h-.725a2.34 2.34 0 0 0-1.8.859l-.777-.381a2.248 2.248 0 0 0-1.21-.592l-6.81-3.33zm2.24 3.54c.752 0 1.34.572 1.34 1.26v.363c-.03.147-.045.3-.045.455v2.01c-.144.54-.654.947-1.29.947h-.635c-.752 0-1.34-.566-1.34-1.25v-2.522c.001-.688.582-1.25 1.34-1.25l.635-.002zm22.9.06v.006h.635c.756 0 1.34.566 1.34 1.25v2.09h-.004l.004.018v.418c0 .688-.582 1.26-1.34 1.26h-.635c-.64 0-1.15-.41-1.29-.953v-2.07c0-.155-.016-.305-.045-.453v-.303c0-.688.582-1.25 1.34-1.25zm-9.07.652.002.002.725.002c.349 0 .673.118.936.322l-3.24 1.58v-.229c0-.945.713-1.68 1.58-1.68zm-4.8.002c.869 0 1.58.737 1.58 1.68v.363l-3.34-1.63a1.523 1.523 0 0 1 1.03-.406l.727-.004zm11.2.213c.234.201.406.476.48.793v2.12c0 .143.016.284.045.42v.7c0 .834-.65 1.5-1.45 1.5h-.676c-.801 0-1.45-.662-1.45-1.5l-.002-2.54 3.05-1.49zm-17.8.088 3.15 1.54-.002 2.41c0 .458-.195.862-.504 1.13l-.686.336a1.435 1.435 0 0 1-.262.026h-.676c-.801 0-1.45-.661-1.45-1.5v-.764c.029-.135.045-.276.045-.42v-2.06c.064-.273.2-.515.383-.705zm13.6 1.93v2.51l-2.57-1.26 2.57-1.26zm-9.42.137 2.29 1.12-2.29 1.12v-2.24zm-9.48 1.21.004.006c.243.895 1.09 1.55 2.08 1.55h.635a2.16 2.16 0 0 0 1.33-.46 2.32 2.32 0 0 0 1.62 1.8l-3.3 1.62a13.83 13.83 0 0 1-1.66-.526 3.886 3.886 0 0 1-.645-.316c-.038-.026-.046-.034-.063-.049 0-1.03.006-2.58 0-3.62zm28.3.195c-.004 1.03 0 2.45 0 3.43-.016.015-.024.024-.06.05a3.557 3.557 0 0 1-.632.313c-.434.176-1.04.375-1.8.568l-3.31-1.62a2.297 2.297 0 0 0 1.78-1.78c.371.29.836.467 1.35.467h.635c.945 0 1.76-.593 2.04-1.42zm-15 1.16c-.043.902-.736 1.59-1.58 1.59h-.727a1.5 1.5 0 0 1-.65-.148l2.96-1.45zm.814.004c.047 1.32 1.09 2.4 2.39 2.4h.727c.522 0 1-.175 1.39-.469l3.87 1.89c-2.2.32-4.98.55-8.33.55-3.47 0-6.36-.246-8.62-.585l3.96-1.94c.409.342.928.55 1.5.55h.725c1.3 0 2.35-1.08 2.39-2.4zm.844.141 2.79 1.36a1.51 1.51 0 0 1-.496.086h-.725c-.795 0-1.46-.618-1.57-1.45z" style="-inkscape-stroke:none"/></svg>