<svg width="65.4" height="99.7" version="1.0" viewBox="0 0 65.4 99.7" xml:space="preserve" xmlns="http://www.w3.org/2000/svg"><path d="M4.67 55.7c-.443 0-1.37.269-1.78.428-1.86.716-3.29 3-2.58 4.87l1.56 4.07a3.641 3.641 0 0 0 3.02 2.31c-.471.355-.88.781-1.07 1.22a3.17 3.17 0 0 0-.04 2.51l1.49 3.64c.518 1.27 1.82 2.13 3.25 2.13.03 0 .066-.004.1-.006-.5.428-.933.945-1.11 1.45-.3.864-.239 1.79.172 2.61l1.84 3.68c.598 1.2 1.82 1.94 3.19 1.94.285 0 .693-.095 1.09-.217-.358.527-.626 1.14-.65 1.69-.042.926.272 1.86.881 2.62l2.81 3.52c.745.931 1.86 1.49 2.97 1.49.591 0 1.38-.344 1.96-.709a3.83 3.83 0 0 0-.011 1.39c.3 1.54 2.06 3.17 3.9 3.23l4.17.13c1 0 1.93-.374 2.47-1.02.445-.543.536-1.62.398-2.33-.301-1.54-2.06-3.17-3.9-3.23l-4.15-.13c-.467 0-.921.083-1.33.234.209-.4.35-.822.367-1.21.04-.926-.27-1.85-.88-2.62l-2.81-3.52c-.744-.932-1.85-1.49-2.97-1.49-.122 0-.256.016-.394.043.156-.214.28-.435.355-.652a3.35 3.35 0 0 0-.172-2.62l-1.84-3.68c-.585-1.17-1.83-1.93-3.17-1.94.354-.306.648-.65.805-1a3.17 3.17 0 0 0 .039-2.51l-1.48-3.64c-.481-1.18-1.64-2-2.95-2.12 1.22-1.03 1.95-2.72 1.4-4.17l-1.56-4.07a3.634 3.634 0 0 0-3.39-2.33zm0 1.5c.874 0 1.67.548 1.99 1.37l1.56 4.07c.419 1.1-.616 2.51-1.71 2.93-.245.094-.987.328-1.25.328-.875 0-1.67-.551-1.99-1.37l-1.56-4.07c-.419-1.09.618-2.51 1.71-2.93.245-.094.986-.326 1.24-.326zm3.25 10.6c.821 0 1.57.479 1.86 1.19l1.48 3.64a1.7 1.7 0 0 1-.02 1.34c-.205.461-1.05.979-1.56 1.16-.228.082-.928.291-1.17.291-.82 0-1.57-.478-1.86-1.19l-1.48-3.64a1.682 1.682 0 0 1 .02-1.33c.205-.461 1.06-.981 1.56-1.16.228-.082.928-.289 1.17-.289zm3.87 9.28c.784 0 1.51.434 1.85 1.11l1.84 3.68c.229.456.263.971.096 1.45-.174.504-1 1.12-1.5 1.36-.285.134-1.04.416-1.36.416-.784 0-1.51-.435-1.85-1.11l-1.85-3.68a1.852 1.852 0 0 1-.096-1.45c.174-.504 1-1.12 1.5-1.36.284-.134 1.05-.416 1.36-.416zm5.24 8.84c.664 0 1.34.346 1.8.926l2.81 3.52c.382.476.578 1.05.553 1.61-.023.525-.609 1.27-.98 1.57-.77.618-2.46.637-3.2-.281l-2.81-3.52c-.382-.477-.578-1.05-.553-1.61.023-.525.61-1.27.98-1.57.285-.229 1.01-.645 1.4-.645zm7.63 8.6h.006l4.08.129c1.13.034 2.31 1.17 2.48 2.02.052.267.074.892-.086 1.09-.245.299-.717.477-1.26.477l-4.17-.129c-1.14-.036-2.31-1.17-2.48-2.02-.052-.267-.073-.891.088-1.09.245-.298.716-.477 1.34-.477z"/><path d="M60.8 55.7c-1.49 0-2.85.938-3.39 2.33l-1.56 4.07c-.552 1.44.175 3.14 1.4 4.17-1.31.111-2.46.933-2.95 2.12l-1.48 3.64a3.177 3.177 0 0 0 .04 2.51c.155.351.45.696.804 1-1.34.007-2.58.766-3.17 1.94l-1.84 3.68a3.35 3.35 0 0 0-.172 2.62c.075.218.198.438.354.652a2.077 2.077 0 0 0-.393-.043c-1.12 0-2.23.555-2.97 1.49l-2.81 3.52a3.925 3.925 0 0 0-.879 2.62c.018.392.16.814.367 1.21a3.845 3.845 0 0 0-1.33-.234l-4.14.129c-1.84.057-3.6 1.7-3.9 3.23-.138.706-.046 1.79.4 2.33.535.649 1.46 1.02 2.47 1.02l4.17-.129c1.84-.059 3.6-1.7 3.9-3.23a3.831 3.831 0 0 0-.01-1.39c.576.364 1.37.707 1.96.707 1.12 0 2.23-.554 2.97-1.49l2.81-3.52c.61-.762.922-1.69.881-2.62-.024-.552-.293-1.16-.652-1.69.394.122.805.217 1.09.217 1.37 0 2.59-.744 3.19-1.94l1.84-3.68c.412-.82.473-1.75.172-2.61-.174-.505-.607-1.02-1.11-1.45.034.002.069.006.098.006h.002c1.42 0 2.73-.856 3.25-2.13l1.49-3.64a3.177 3.177 0 0 0-.04-2.51c-.193-.436-.601-.862-1.07-1.22a3.656 3.656 0 0 0 3.02-2.31l1.56-4.07c.715-1.87-.711-4.15-2.58-4.87-.414-.16-1.34-.43-1.78-.43zm0 1.5c.259 0 1 .234 1.24.328 1.09.42 2.13 1.84 1.71 2.93l-1.56 4.07a2.137 2.137 0 0 1-1.98 1.37c-.26 0-1-.232-1.24-.326-1.09-.42-2.13-1.84-1.71-2.94l1.56-4.07a2.137 2.137 0 0 1 1.98-1.37zm-3.25 10.6c.242 0 .941.207 1.17.289.502.181 1.35.701 1.56 1.16.19.426.197.898.021 1.33l-1.49 3.64c-.29.715-1.04 1.19-1.86 1.19-.24 0-.94-.207-1.17-.289-.501-.181-1.35-.699-1.56-1.16a1.697 1.697 0 0 1-.021-1.34l1.48-3.64c.29-.714 1.04-1.19 1.86-1.19zm-3.87 9.28c.314 0 1.08.282 1.36.416.5.235 1.33.855 1.51 1.36.166.479.132.996-.096 1.45l-1.85 3.68c-.336.673-1.06 1.11-1.85 1.11-.314 0-1.08-.282-1.36-.416-.5-.235-1.33-.855-1.5-1.36a1.85 1.85 0 0 1 .096-1.45l1.85-3.68c.336-.674 1.06-1.11 1.84-1.11zm-5.24 8.84c.389 0 1.12.416 1.4.645.369.297.956 1.05.979 1.57.025.562-.171 1.13-.553 1.61l-2.81 3.52c-.734.918-2.43.899-3.2.281-.37-.297-.959-1.05-.982-1.57a2.41 2.41 0 0 1 .553-1.61l2.81-3.52c.463-.58 1.13-.926 1.8-.926zm-7.64 8.6h.008c.629 0 1.1.177 1.34.475.16.195.14.819.088 1.09-.166.848-1.34 1.99-2.48 2.02l-4.17.129c-.545 0-1.02-.178-1.26-.477-.16-.194-.138-.819-.086-1.09.167-.847 1.34-1.99 2.48-2.02l4.08-.127zM36.6 0c-2.16 0-3.93 2.34-3.93 4.5S34.43 9 36.6 9h4.81c.704 0 1.37-.248 1.94-.656-.659 1.41-.682 3.14.287 4.29l3.1 3.68c.748.89 1.84 1.4 3.01 1.4.311 0 .671-.08 1.04-.209-.244.37-.429.753-.504 1.12a3.892 3.892 0 0 0 .562 2.95l2.64 4.03c.636.97 1.65 1.6 2.79 1.74-.358.277-.664.589-.854.914a3.916 3.916 0 0 0-.406 2.98l1.22 4.66a3.932 3.932 0 0 0 2.53 2.73c-1.38.606-2.5 1.82-2.58 3.26l-.268 4.8c-.117 2.16 2.39 4.06 4.54 4.18 2.08 0 4.33-1.61 4.44-3.69l.264-4.81a3.925 3.925 0 0 0-.994-2.84c-.467-.522-1.31-.916-2.13-1.14.943-.35 2.04-1.04 2.49-1.82.53-.907.672-1.97.406-2.98l-1.22-4.66a3.905 3.905 0 0 0-2.55-2.73c-.349-.116-.84-.148-1.34-.129.766-.633 1.55-1.61 1.73-2.47a3.905 3.905 0 0 0-.562-2.95l-2.64-4.02a3.93 3.93 0 0 0-3.29-1.78c-.38 0-.874.133-1.35.318.835-1.47.952-3.41-.102-4.66l-3.1-3.68a3.914 3.914 0 0 0-3.01-1.4c-.799 0-1.91.527-2.65 1.05.302-.633.473-1.32.473-2 0-2.16-1.76-4.5-3.93-4.5h-4.81zm0 1.5h4.81c1.34 0 2.43 1.66 2.43 3s-1.09 3-2.43 3H36.6c-1.34 0-2.43-1.66-2.43-3s1.09-3 2.43-3zm10.9 5.44c.718 0 1.39.317 1.86.867l3.1 3.68c.861 1.02.288 2.93-.734 3.79-.435.367-1.43.941-2 .941-.718 0-1.4-.317-1.86-.867l-3.1-3.68c-.861-1.02-.289-2.93.732-3.79.436-.366 1.43-.941 2-.941zm7.56 9.43c.822 0 1.58.411 2.03 1.1l2.64 4.02c.357.543.48 1.19.35 1.83s-.984 1.5-1.53 1.85c-.395.259-1.34.713-1.81.713-.822 0-1.58-.411-2.03-1.1l-2.64-4.03a2.402 2.402 0 0 1-.35-1.82c.13-.635.984-1.5 1.53-1.85.396-.26 1.34-.713 1.81-.713zm4.93 11.2c.272-.007.522.008.689.065.781.261 1.37.891 1.58 1.69l1.22 4.66c.165.628.076 1.29-.252 1.85-.326.56-1.41 1.1-2.04 1.27-.457.12-1.49.253-1.94.104a2.43 2.43 0 0 1-1.58-1.69l-1.22-4.66a2.417 2.417 0 0 1 .252-1.84c.327-.561 1.41-1.11 2.04-1.27a6.246 6.246 0 0 1 1.25-.166zm.742 12.1c.644.035 1.88.355 2.31.838.432.482.65 1.1.615 1.75l-.264 4.81c-.072 1.29-1.78 2.26-3.06 2.26-1.33-.072-3-1.25-2.93-2.59l.266-4.8c.071-1.29 1.78-2.26 3.06-2.26zM23.77 0c-2.16 0-3.93 2.34-3.93 4.5 0 .674.172 1.36.473 2-.741-.527-1.85-1.05-2.65-1.05-1.16 0-2.26.51-3.01 1.4l-3.1 3.68c-1.05 1.25-.934 3.19-.096 4.66-.48-.187-.978-.32-1.36-.32-1.33 0-2.56.662-3.29 1.77l-2.64 4.03a3.905 3.905 0 0 0-.564 2.95c.178.86.967 1.84 1.73 2.47-.498-.02-.989.012-1.34.129a3.92 3.92 0 0 0-2.55 2.73l-1.22 4.66a3.897 3.897 0 0 0 .408 2.98c.452.777 1.55 1.47 2.49 1.82-.819.221-1.66.613-2.13 1.13-.7.781-1.05 1.79-.996 2.83l.264 4.81c.115 2.08 2.37 3.69 4.45 3.69 2.16-.118 4.66-2.02 4.54-4.18l-.266-4.8c-.078-1.44-1.2-2.66-2.58-3.26a3.922 3.922 0 0 0 2.53-2.72l1.22-4.66a3.912 3.912 0 0 0-.406-2.98c-.19-.325-.495-.635-.854-.912a3.943 3.943 0 0 0 2.79-1.74l2.64-4.03c.576-.876.774-1.92.562-2.95-.075-.363-.259-.749-.504-1.12.366.129.727.211 1.04.211 1.16 0 2.26-.511 3.01-1.4l3.1-3.68c.97-1.15.946-2.88.287-4.29.572.408 1.23.656 1.94.656h4.81c2.17 0 3.93-2.34 3.93-4.5s-1.76-4.5-3.93-4.5z"/><path d="M52.87 49.6h-40.7s-.064-5.61-.356-6.88c-.361-1.56-1.2-3.94-1.2-3.94s1.38-3.34 1.74-5.05c.344-1.65-.146-5.12-.146-5.12s1.95-1.86 3.38-4.01c1.38-2.08 1.67-4.7 1.67-4.7s3.21-1.9 4.49-3.27c1.3-1.38 3.39-5.19 3.39-5.19s1.52.243 2.64.243c.641 0 1.19-.051 1.64-.15 1.56-.344 3.08-1.33 3.08-1.33s1.54.988 3.08 1.33c.45.1 1 .15 1.64.15 1.12 0 2.64-.243 2.64-.243s2.1 3.81 3.39 5.19c1.28 1.37 4.49 3.27 4.49 3.27s.296 2.64 1.67 4.7c1.44 2.16 3.38 4.01 3.38 4.01s-.49 3.48-.146 5.12c.356 1.7 1.73 5.05 1.73 5.05s-.836 2.38-1.2 3.94c-.292 1.26-.355 4.85-.355 6.12v.749zm-39.2-1.5h37.7c.017-1.41.089-4.41.389-5.71.305-1.32.838-2.93 1.06-3.56-.324-.805-1.28-3.23-1.6-4.78-.323-1.54-.086-3.95.026-4.88a26.659 26.659 0 0 1-3.04-3.73c-1.24-1.86-1.68-3.82-1.82-4.62-.814-.5-3.01-1.9-4.19-3.15-1.13-1.2-2.54-3.58-3.11-4.58-.437.05-1.1.108-1.83.108-.749 0-1.41-.063-1.97-.186a10.962 10.962 0 0 1-2.76-1.03c-.526.286-1.52.757-2.75 1.03-.557.123-1.22.186-1.97.186-.727 0-1.39-.058-1.83-.108-.568.995-1.98 3.38-3.11 4.58-1.18 1.25-3.38 2.65-4.19 3.15-.137.807-.575 2.76-1.82 4.62a26.19 26.19 0 0 1-3.04 3.73c.111.929.348 3.34.025 4.88-.324 1.55-1.28 3.98-1.6 4.78.216.632.75 2.24 1.06 3.56.298 1.3.37 4.3.387 5.71z"/></svg>