<svg width="1.2em" height="1.2em" viewBox="0 0 7.94 7.94" xmlns="http://www.w3.org/2000/svg"><path d="M3.98.372c-1.25 0-2.23.119-2.89.26C.757.702.502.778.324.849.235.885.166.919.113.954a.332.332 0 0 0-.07.06.155.155 0 0 0-.042.105v1.11a.15.15 0 0 0 .062.112c.03.018.053.022.074.025a.347.347 0 0 0 .052.001v.654c0 .314.256.571.57.571h.168a.568.568 0 0 0 .418-.184c.102.19.298.32.524.32h.179c.208 0 .39-.11.498-.275a.638.638 0 0 0 .59.437h.192c.345 0 .618-.296.633-.655.016.358.288.655.633.655h.192a.638.638 0 0 0 .591-.437c.108.165.29.275.498.275h.18c.225 0 .421-.13.523-.32a.564.564 0 0 0 .418.185h.168c.314 0 .57-.258.57-.572v-.654c.02.001.039 0 .06-.002.021-.002.045-.006.074-.025s.062-.067.062-.112v-1.11a.158.158 0 0 0-.04-.104.327.327 0 0 0-.07-.06 1.144 1.144 0 0 0-.207-.106A4.668 4.668 0 0 0 6.858.63C6.2.49 5.238.37 3.978.37zm0 .216c1.24 0 2.19.118 2.83.256.32.069.562.142.718.206a.997.997 0 0 1 .167.084c.01.006.012.009.016.013 0 .286-.002.736 0 1.01a.08.08 0 0 0-.006 0 .572.572 0 0 0-.543-.4h-.169a.567.567 0 0 0-.45.222.594.594 0 0 0-.492-.268h-.179a.6.6 0 0 0-.522.316.63.63 0 0 0-.566-.379h-.192c-.347 0-.62.3-.633.66-.012-.36-.287-.66-.633-.66h-.192a.63.63 0 0 0-.566.38.596.596 0 0 0-.522-.317h-.179a.594.594 0 0 0-.492.268.568.568 0 0 0-.45-.223H.757a.573.573 0 0 0-.542.396c.002-.27 0-.717 0-1l.017-.013a.983.983 0 0 1 .17-.084c.16-.064.407-.138.73-.207.649-.137 1.61-.256 2.85-.256zm-.654 1.27c.227 0 .419.204.419.47v.877c0 .266-.192.47-.418.47h-.192c-.227 0-.419-.204-.419-.47v-.876c0-.266.192-.47.418-.47zm1.27 0h.192c.227 0 .419.204.419.471v.876c0 .267-.192.47-.42.47h-.191c-.227 0-.42-.204-.42-.47l.001-.877c0-.266.192-.47.42-.47zm-2.55.063c.211 0 .384.178.384.406v.78a.394.394 0 0 1-.384.406h-.179a.391.391 0 0 1-.382-.386.573.573 0 0 0 .01-.104V2.32a.558.558 0 0 0-.005-.069.388.388 0 0 1 .377-.331zm3.83 0h.179c.187 0 .344.14.377.331a.579.579 0 0 0-.005.069v.702a.6.6 0 0 0 .01.104.392.392 0 0 1-.382.386h-.179a.394.394 0 0 1-.384-.406v-.78c0-.228.173-.406.384-.406zm1.12.045h.168c.197 0 .354.158.354.355v.702a.352.352 0 0 1-.354.355h-.168a.352.352 0 0 1-.342-.268v-.782a.645.645 0 0 0-.005-.075.352.352 0 0 1 .347-.286zm-6.07 0c.173 0 .315.122.347.286a.646.646 0 0 0-.005.075v.782a.351.351 0 0 1-.342.268H.758a.352.352 0 0 1-.354-.355V2.32c0-.198.157-.355.354-.355zm.01 2.53h-.17a.56.56 0 0 0-.57.548v.536c-.02 0-.04 0-.06.002-.022.003-.045.007-.075.025S0 5.675 0 5.72c.003.255 0 .808 0 1.11 0 .048.022.081.042.105.02.024.044.042.07.06.053.035.122.07.211.105.177.07.433.147.766.217.666.14 1.64.26 2.89.26s2.22-.12 2.88-.26a4.5 4.5 0 0 0 .755-.218c.087-.036.155-.07.207-.106.026-.018.049-.036.069-.06s.041-.057.041-.104c0-.307-.003-.86 0-1.11a.148.148 0 0 0-.062-.112.165.165 0 0 0-.074-.025.348.348 0 0 0-.051-.002v-.52a.561.561 0 0 0-.57-.548h-.168a.572.572 0 0 0-.516.318.592.592 0 0 0-.426-.182h-.18a.601.601 0 0 0-.544.358.627.627 0 0 0-.543-.321h-.192a.648.648 0 0 0-.633.63c-.016-.346-.291-.63-.633-.63h-.192a.628.628 0 0 0-.543.322.601.601 0 0 0-.545-.358h-.18a.59.59 0 0 0-.42.176.574.574 0 0 0-.522-.329zm0 .216c.198 0 .353.15.353.332v.097a.625.625 0 0 0-.012.12v.532a.347.347 0 0 1-.342.25H.767c-.199 0-.354-.15-.354-.332v-.667c0-.182.154-.332.354-.332zm6.07.017h.167c.2 0 .354.15.354.332v.667c0 .183-.154.333-.354.333h-.168a.347.347 0 0 1-.342-.252v-.55a.61.61 0 0 0-.012-.12v-.08c0-.181.154-.331.354-.331zm-4.95.136c.211 0 .383.175.383.396v.764a.389.389 0 0 1-.384.396h-.179a.389.389 0 0 1-.384-.396v-.202a.527.527 0 0 0 .012-.11v-.546a.383.383 0 0 1 .372-.302zm3.83 0h.178c.181 0 .332.128.373.302v.562a.53.53 0 0 0 .012.111v.185a.389.389 0 0 1-.384.396h-.179a.389.389 0 0 1-.384-.396v-.764a.39.39 0 0 1 .384-.396zm-2.55.036a.43.43 0 0 1 .418.445v.838a.43.43 0 0 1-.419.445h-.192a.43.43 0 0 1-.419-.445v-.837c0-.25.19-.445.42-.445zm1.27 0h.191c.23 0 .418.195.42.445v.837c0 .25-.19.445-.419.445h-.192a.43.43 0 0 1-.419-.445v-.838c0-.25.189-.445.418-.445zm-4.39.95c.064.236.288.41.55.41h.168a.578.578 0 0 0 .353-.123.605.605 0 0 0 .59.5h.178c.2 0 .375-.1.484-.253a.64.64 0 0 0 .604.46h.192a.647.647 0 0 0 .633-.637c.013.35.29.636.633.636h.192a.64.64 0 0 0 .604-.459.596.596 0 0 0 .484.252h.18a.606.606 0 0 0 .586-.484.578.578 0 0 0 .356.124h.168a.57.57 0 0 0 .541-.377v.907l-.016.013a.954.954 0 0 1-.167.084 4.43 4.43 0 0 1-.718.206c-.64.137-1.59.256-2.83.256s-2.2-.118-2.85-.256a4.554 4.554 0 0 1-.73-.207 1.026 1.026 0 0 1-.17-.084l-.017-.013v-.957z" color="#000" style="-inkscape-stroke:none"/></svg>