<svg width="65.4" height="99.7" version="1.0" viewBox="0 0 65.4 99.7" xml:space="preserve" xmlns="http://www.w3.org/2000/svg"><path d="M4.67 55.7c-.443 0-1.37.269-1.78.428-1.86.716-3.29 3-2.58 4.87l1.56 4.07a3.641 3.641 0 0 0 3.02 2.31c-.471.355-.88.781-1.07 1.22a3.17 3.17 0 0 0-.04 2.51l1.49 3.64c.518 1.27 1.82 2.13 3.25 2.13.03 0 .067-.004.1-.006-.5.428-.933.945-1.11 1.45-.3.864-.238 1.79.173 2.61l1.84 3.68c.598 1.2 1.82 1.94 3.19 1.94.285 0 .693-.095 1.09-.217-.358.527-.626 1.14-.65 1.69-.042.926.272 1.86.88 2.62l2.81 3.52c.746.931 1.86 1.49 2.97 1.49.592 0 1.38-.344 1.96-.709a3.83 3.83 0 0 0-.011 1.39c.3 1.54 2.06 3.17 3.9 3.23l4.17.13c1 0 1.93-.374 2.47-1.02.445-.543.536-1.62.398-2.33-.301-1.54-2.06-3.17-3.9-3.23l-4.15-.13c-.467 0-.921.083-1.33.234.209-.4.35-.822.367-1.21.04-.926-.27-1.85-.88-2.62l-2.81-3.52c-.744-.932-1.85-1.49-2.97-1.49-.122 0-.256.016-.394.043.156-.214.28-.435.355-.652a3.35 3.35 0 0 0-.172-2.62l-1.84-3.68c-.585-1.17-1.83-1.93-3.17-1.94.354-.306.648-.65.805-1a3.17 3.17 0 0 0 .039-2.51l-1.48-3.64c-.481-1.18-1.64-2-2.95-2.12 1.22-1.03 1.95-2.72 1.4-4.17l-1.56-4.07a3.634 3.634 0 0 0-3.39-2.33zm56.3 0c-1.49 0-2.85.939-3.39 2.33l-1.56 4.07c-.553 1.44.175 3.14 1.4 4.17-1.31.111-2.47.932-2.95 2.12l-1.48 3.64a3.168 3.168 0 0 0 .04 2.51c.155.351.448.696.802 1-1.34.008-2.58.767-3.17 1.94l-1.84 3.68a3.358 3.358 0 0 0-.174 2.62c.075.218.2.438.355.652a2.052 2.052 0 0 0-.393-.043c-1.12 0-2.23.555-2.97 1.49l-2.81 3.52a3.921 3.921 0 0 0-.88 2.62c.017.392.158.813.366 1.21a3.836 3.836 0 0 0-1.33-.232l-4.15.129c-1.84.057-3.6 1.7-3.9 3.23-.139.706-.045 1.79.4 2.33.535.649 1.46 1.02 2.47 1.02l4.17-.129c1.84-.059 3.6-1.7 3.9-3.23.077-.399.08-.917-.012-1.39.576.365 1.37.707 1.96.707 1.12 0 2.23-.554 2.97-1.49l2.81-3.52c.61-.762.923-1.69.881-2.62-.024-.552-.294-1.16-.652-1.69.394.122.803.217 1.09.217 1.37 0 2.59-.744 3.19-1.94l1.84-3.68c.41-.82.472-1.75.172-2.61-.175-.505-.607-1.02-1.11-1.45.033.002.07.006.098.006 1.43 0 2.73-.856 3.25-2.13l1.48-3.64c.333-.816.32-1.71-.037-2.51-.194-.436-.601-.864-1.07-1.22a3.656 3.656 0 0 0 3.02-2.31l1.56-4.07c.715-1.87-.709-4.15-2.57-4.87-.416-.16-1.34-.428-1.78-.428zM36.57 0c-2.16 0-3.93 2.34-3.93 4.5S34.4 9 36.57 9h4.81c.704 0 1.37-.248 1.94-.656-.659 1.41-.682 3.14.287 4.29l3.1 3.68c.748.89 1.84 1.4 3.01 1.4h.002c.311 0 .669-.08 1.04-.209-.244.37-.429.753-.504 1.12a3.892 3.892 0 0 0 .562 2.95l2.64 4.03c.636.97 1.65 1.6 2.79 1.74-.358.277-.662.589-.852.914a3.917 3.917 0 0 0-.408 2.98l1.22 4.66a3.932 3.932 0 0 0 2.53 2.73c-1.38.606-2.5 1.82-2.58 3.26l-.266 4.8c-.117 2.16 2.39 4.06 4.54 4.18 2.08 0 4.33-1.61 4.44-3.69l.264-4.81a3.925 3.925 0 0 0-.994-2.84c-.467-.522-1.31-.916-2.13-1.14.943-.35 2.04-1.04 2.49-1.82.53-.907.674-1.97.408-2.98l-1.22-4.66a3.905 3.905 0 0 0-2.55-2.73c-.349-.116-.84-.148-1.34-.129.766-.633 1.55-1.61 1.73-2.47a3.905 3.905 0 0 0-.562-2.95l-2.64-4.02a3.93 3.93 0 0 0-3.29-1.78c-.379 0-.873.133-1.35.318.834-1.47.952-3.41-.102-4.66l-3.1-3.68a3.914 3.914 0 0 0-3.01-1.4c-.799 0-1.91.527-2.65 1.05.302-.633.473-1.32.473-2 0-2.16-1.76-4.5-3.93-4.5zm-12.8 0c-2.16 0-3.93 2.34-3.93 4.5 0 .674.172 1.36.473 2-.741-.527-1.85-1.05-2.65-1.05-1.16 0-2.26.51-3.01 1.4l-3.1 3.68c-1.05 1.25-.934 3.19-.096 4.66-.48-.187-.978-.32-1.36-.32-1.33 0-2.56.662-3.29 1.77l-2.64 4.03a3.905 3.905 0 0 0-.564 2.95c.178.86.967 1.84 1.73 2.47-.498-.02-.989.012-1.34.129a3.92 3.92 0 0 0-2.55 2.73l-1.22 4.66a3.897 3.897 0 0 0 .408 2.98c.452.777 1.55 1.47 2.49 1.82-.819.221-1.66.613-2.13 1.13-.7.781-1.05 1.79-.996 2.83l.264 4.81c.115 2.08 2.37 3.69 4.45 3.69 2.16-.118 4.66-2.02 4.54-4.18l-.266-4.8c-.078-1.44-1.2-2.66-2.58-3.26a3.922 3.922 0 0 0 2.53-2.72l1.22-4.66a3.912 3.912 0 0 0-.406-2.98c-.19-.325-.495-.635-.854-.912a3.943 3.943 0 0 0 2.79-1.74l2.64-4.03c.576-.876.774-1.92.562-2.95-.075-.363-.259-.749-.504-1.12.366.129.727.211 1.04.211 1.16 0 2.26-.511 3.01-1.4l3.1-3.68c.97-1.15.946-2.88.287-4.29.572.408 1.23.656 1.94.656h4.81c2.17 0 3.93-2.34 3.93-4.5s-1.76-4.5-3.93-4.5z"/><path d="M52.87 49.6h-40.7s-.064-5.61-.356-6.88c-.361-1.56-1.2-3.94-1.2-3.94s1.38-3.34 1.74-5.05c.344-1.65-.146-5.12-.146-5.12s1.95-1.86 3.38-4.01c1.38-2.08 1.67-4.7 1.67-4.7s3.21-1.9 4.49-3.27c1.3-1.38 3.39-5.19 3.39-5.19s1.52.243 2.64.243c.641 0 1.19-.051 1.64-.15 1.56-.344 3.08-1.33 3.08-1.33s1.54.988 3.08 1.33c.45.1 1 .15 1.64.15 1.12 0 2.64-.243 2.64-.243s2.1 3.81 3.39 5.19c1.28 1.37 4.49 3.27 4.49 3.27s.296 2.64 1.67 4.7c1.44 2.16 3.38 4.01 3.38 4.01s-.49 3.48-.146 5.12c.356 1.7 1.73 5.05 1.73 5.05s-.836 2.38-1.2 3.94c-.292 1.26-.355 4.85-.355 6.12v.749zm-39.2-1.5h37.7c.017-1.41.089-4.41.389-5.71.305-1.32.838-2.93 1.06-3.56-.324-.805-1.28-3.23-1.6-4.78-.323-1.54-.086-3.95.026-4.88a26.659 26.659 0 0 1-3.04-3.73c-1.24-1.86-1.68-3.82-1.82-4.62-.814-.5-3.01-1.9-4.19-3.15-1.13-1.2-2.54-3.58-3.11-4.58-.437.05-1.1.108-1.83.108-.749 0-1.41-.063-1.97-.186a10.962 10.962 0 0 1-2.76-1.03c-.526.286-1.52.757-2.75 1.03-.557.123-1.22.186-1.97.186-.727 0-1.39-.058-1.83-.108-.568.995-1.98 3.38-3.11 4.58-1.18 1.25-3.38 2.65-4.19 3.15-.137.807-.575 2.76-1.82 4.62a26.19 26.19 0 0 1-3.04 3.73c.111.929.348 3.34.025 4.88-.324 1.55-1.28 3.98-1.6 4.78.216.632.75 2.24 1.06 3.56.298 1.3.37 4.3.387 5.71z"/></svg>