<svg width="1.2em" height="1.2em" viewBox="0 0 7.94 7.94" xmlns="http://www.w3.org/2000/svg"><path transform="scale(.265)" d="m1.29.26-.879 1.8 1.71.838c-.343.106-.643.21-.9.312a4.417 4.417 0 0 0-.797.398 1.236 1.236 0 0 0-.264.225.585.585 0 0 0-.16.396v4.19c0 .168.121.354.232.424.111.07.202.084.283.094.068.008.13.009.193.008l.002 2.47c0 .795.434 1.49 1.08 1.87l-1.38.674.879 1.8 4.4-2.15c.38.3.855.48 1.37.48h.676c.786 0 1.47-.416 1.88-1.04.347.956 1.21 1.65 2.23 1.65h.725c1.3 0 2.34-1.12 2.39-2.47.059 1.35 1.09 2.47 2.39 2.47l.727-.002c1.03 0 1.88-.694 2.23-1.65.408.623 1.09 1.04 1.88 1.04h.678c.479 0 .922-.155 1.29-.418l4.27 2.09.879-1.8-1.27-.62a2.167 2.167 0 0 0 1.18-1.92V8.95c.072.003.146.002.225-.007.081-.01.17-.024.281-.094s.234-.256.234-.424v-4.19a.606.606 0 0 0-.156-.395 1.24 1.24 0 0 0-.258-.227 4.293 4.293 0 0 0-.783-.4 12.08 12.08 0 0 0-1.05-.365l1.6-.783-.879-1.8-3.83 1.87c-2.39-.415-5.59-.73-9.57-.73l.006.006c-4.08 0-7.39.335-9.83.77L1.284.26zm13.7 1.96c3.32 0 6.09.225 8.28.541l-8.45 4.13-8.35-4.08c2.25-.332 5.11-.572 8.54-.572l-.012-.018zm11.6 1.17c.792.198 1.41.397 1.86.578.295.121.51.235.631.316.037.025.045.035.06.049 0 1.08-.007 2.78 0 3.82l-.025-.002a2.157 2.157 0 0 0-2.05-1.51l-.635-.002a2.14 2.14 0 0 0-1.7.844 2.244 2.244 0 0 0-1.86-1.01h-.678c-.846 0-1.58.489-1.97 1.2a2.617 2.617 0 0 0-.629-.85l7-3.42zm-23.3.057 7.01 3.43a2.6 2.6 0 0 0-.561.787c-.389-.71-1.12-1.2-1.97-1.2h-.678c-.771 0-1.45.405-1.86 1.01a2.15 2.15 0 0 0-1.7-.844h-.635c-.952 0-1.76.633-2.05 1.5.007-1.02 0-2.71 0-3.78.017-.015.024-.023.062-.05a3.7 3.7 0 0 1 .645-.317c.421-.17 1-.355 1.73-.541zm15.5 3.76c.52.285.889.88.889 1.6v.445l-2.53-1.24 1.64-.805zm-11.7.054h.674c.797 0 1.45.672 1.45 1.53v.88l-3.53 1.73-.002-2.63a2.14 2.14 0 0 0-.018-.263c.126-.722.72-1.25 1.43-1.25zm15.1 0h.678c.707 0 1.3.528 1.42 1.25a2.26 2.26 0 0 0-.018.262v2.65c0 .027.003.054.004.08l-3.54-1.73v-.982c0-.86.653-1.53 1.45-1.53zm-11.1.002 1.53.748-2.32 1.13v-.344c0-.67.326-1.24.795-1.54zM2.9 7.43l.633.002c.654 0 1.19.46 1.31 1.08-.011.094-.02.19-.02.285v2.94l.002.012c-.006.027-.017.053-.025.08l-1.91.932a1.327 1.327 0 0 1-1.33-1.34v-2.66c0-.748.594-1.34 1.34-1.34zm23.6.002h.635c.744 0 1.34.597 1.34 1.34v2.65c0 .748-.594 1.34-1.34 1.34h-.197l-1.66-.814a1.354 1.354 0 0 1-.066-.199V8.798c0-.096-.007-.192-.018-.285.119-.62.657-1.08 1.31-1.08V7.43zm-12.3 2.04v2.64c0 1.01-.724 1.78-1.58 1.78h-.727c-.858 0-1.58-.77-1.58-1.78v-.74l3.89-1.9zm1.63.102 3.89 1.9v.637c0 1.01-.726 1.78-1.58 1.78l-.725.002c-.858 0-1.58-.77-1.58-1.78v-.002l.002-2.54zm-6.61 2.33c-.076.783-.697 1.37-1.44 1.37h-.678a1.38 1.38 0 0 1-.496-.094l2.62-1.28zm11.6.11 2.47 1.21a1.377 1.377 0 0 1-.371.052h-.678c-.711 0-1.31-.536-1.43-1.26zm-17.2 4.98-.635.001c-1.18 0-2.15.922-2.15 2.07v2.03a1.37 1.37 0 0 0-.229.008c-.081.01-.17.023-.281.094s-.237.256-.234.424c.011.963 0 3.05 0 4.19 0 .182.084.305.16.396.077.09.163.159.264.227.201.135.461.263.797.396.669.269 1.64.554 2.89.818 2.52.533 6.2.982 10.9.982s8.39-.45 10.9-.982c1.24-.267 2.19-.55 2.85-.822.329-.135.585-.263.781-.4.099-.068.184-.137.26-.227a.59.59 0 0 0 .156-.393c0-1.16-.011-3.25 0-4.2a.557.557 0 0 0-.234-.422.622.622 0 0 0-.281-.096 1.374 1.374 0 0 0-.191-.006v-1.96c-.001-1.15-.979-2.07-2.15-2.07h-.635a2.16 2.16 0 0 0-1.95 1.2 2.238 2.238 0 0 0-1.61-.688h-.002l-.676-.002c-.914 0-1.7.56-2.06 1.35-.419-.722-1.18-1.22-2.05-1.21h-.725c-1.29 0-2.34 1.07-2.39 2.38-.058-1.31-1.1-2.38-2.39-2.38h-.725c-.877 0-1.63.491-2.05 1.22-.359-.793-1.15-1.35-2.06-1.35l-.676.002c-.62 0-1.18.254-1.59.664a2.164 2.164 0 0 0-1.97-1.24l-.01-.002zm0 .815c.752 0 1.34.572 1.34 1.26v.363c-.03.147-.044.3-.045.455v2.01c-.144.54-.654.947-1.29.947H2.99c-.752 0-1.34-.566-1.34-1.25v-2.522c.001-.688.582-1.25 1.34-1.25l.635-.002zm22.9.06v.007h.635c.756 0 1.34.566 1.34 1.25v2.09h-.004l.004.017v.418c0 .688-.582 1.26-1.34 1.26h-.635c-.639 0-1.15-.409-1.29-.953v-2.07c0-.155-.016-.305-.045-.453v-.303c0-.688.582-1.25 1.34-1.25zm-19.4.519.678.002c.801 0 1.45.66 1.45 1.5l-.002 2.89c0 .835-.65 1.5-1.45 1.5H7.12c-.801 0-1.45-.661-1.45-1.5v-.764c.03-.135.045-.276.045-.42v-2.06c.155-.661.722-1.14 1.41-1.14zm15.1.002h.676c.684 0 1.26.483 1.41 1.14v2.12c0 .143.016.284.045.42v.699c0 .835-.65 1.5-1.45 1.5h-.676c-.801 0-1.45-.661-1.45-1.5l-.002-2.89c0-.834.649-1.5 1.45-1.5zm-4.84.133.002.002.725.002c.869-.001 1.58.737 1.58 1.68v3.16c0 .945-.715 1.68-1.58 1.68h-.725c-.869 0-1.58-.737-1.58-1.68v-3.17c0-.945.713-1.68 1.58-1.68zm-4.8.002c.869 0 1.58.737 1.58 1.68l-.002 3.17c0 .945-.713 1.68-1.58 1.68h-.727c-.869 0-1.58-.737-1.58-1.68v-3.16c.001-.945.713-1.68 1.58-1.68l.727-.004zm-11.8 3.58.004.005c.243.895 1.09 1.55 2.08 1.55h.635a2.16 2.16 0 0 0 1.33-.46c.198 1.07 1.12 1.89 2.23 1.89h.676c.752 0 1.42-.38 1.83-.954.309.997 1.21 1.73 2.28 1.73h.725c1.3 0 2.35-1.08 2.39-2.4.047 1.32 1.09 2.4 2.39 2.4h.727c1.07 0 1.97-.737 2.28-1.73.412.574 1.08.953 1.83.953h.676c1.09 0 1.99-.789 2.22-1.83.37.29.836.467 1.35.467h.635c.945 0 1.76-.593 2.04-1.42-.004 1.03 0 2.45 0 3.43-.016.015-.024.024-.06.05a3.557 3.557 0 0 1-.632.313c-.593.241-1.5.522-2.71.78-2.42.517-6.01.966-10.7.966-4.69 0-8.31-.445-10.8-.967-1.22-.26-2.16-.538-2.76-.783a3.886 3.886 0 0 1-.645-.316c-.038-.025-.045-.034-.062-.049 0-1.03.006-2.58 0-3.62z" style="-inkscape-stroke:none"/></svg>