<svg width="1em" height="1em" fill="currentColor" version="1.1" viewBox="0 0 32 32" xmlns="http://www.w3.org/2000/svg"><path d="m15.6 3.13c0.199-0.157 8.52-6.63 14-0.253 3.02 3.5 2.76 7.13 1.64 10.7l-3.94 11.3c-1.15 3.93-1.98 5.14-4 6.84-1.2 1.01-2.55-0.736-3.97-2.58-1.23-1.6-2.52-3.26-3.8-3.25-1.31 4e-3 -2.61 1.67-3.86 3.26-1.44 1.84-2.81 3.58-4.01 2.57-2.43-2.05-3.5-4.88-4.62-9.42-0.215-0.874-0.541-1.92-0.902-3.08-1.51-4.85-3.61-11.6-0.53-15.3 3.81-4.62 8.53-5.37 13.9-0.777l0.05 0.037zm-2.66 0.474c-1.86-1.28-3.45-1.69-4.77-1.58-1.62 0.127-3.31 1.06-5 3.12-1.28 1.55-1.4 4.16-0.718 7.58 0.327 1.63 0.805 3.27 1.29 4.84 0.103 0.338 0.209 0.676 0.313 1.01 0.365 1.17 0.717 2.3 0.948 3.24 1.02 4.16 1.91 6.39 3.52 7.97 0.333-0.31 0.753-0.806 1.31-1.51l0.27-0.344c0.57-0.727 1.24-1.59 1.93-2.28 0.732-0.731 1.94-1.76 3.51-1.77 1.58-5e-3 2.78 1.04 3.5 1.77 0.679 0.689 1.34 1.55 1.91 2.28l0.267 0.345c0.545 0.7 0.958 1.2 1.28 1.5 0.647-0.586 1.07-1.08 1.43-1.68 0.47-0.785 0.907-1.87 1.47-3.79l0.031-0.096 3.93-11.3c0.514-1.64 0.775-3.14 0.64-4.54-0.134-1.37-0.653-2.77-1.9-4.21-2.06-2.39-4.6-2.43-6.99-1.69-1.2 0.374-2.29 0.93-3.08 1.41-0.298 0.178-0.548 0.341-0.742 0.474l3.84 2.82a1 1 0 0 1-1.18 1.61l-5.42-3.99a2 2 0 0 1-0.217-0.159l-1.16-0.851a0.997 0.997 0 0 1-0.208-0.206zm-4.77 26.4 3e-3 -2e-3 -4e-3 2e-3z" clip-rule="evenodd" fill="currentColor" fill-rule="evenodd"></path><rect x="0" y="100%" width="32" height="32" fill="#ffffff" clip-path="url(#filler-path)"/><clipPath id="filler-path"><path class="loader-bg" d="m8.31 29.6c-1.38-1.47-2.24-3.45-3.28-7.6-0.21-0.839-0.393-1.47-0.849-2.95-0.629-2.04-0.924-3.02-1.14-3.81-0.963-3.52-1.23-6.12-0.82-8.02 0.187-0.863 0.526-1.56 1.07-2.21 0.802-0.945 1.59-1.64 2.42-2.14 1.84-1.1 3.68-1.12 5.83-0.063 0.537 0.265 1.29 0.716 1.5 0.898 0.0538 0.0472 1.02 0.763 2.14 1.59 1.13 0.828 2.66 1.96 3.41 2.51s1.42 1.03 1.5 1.07c0.196 0.0964 0.579 0.0984 0.787 0.00408 0.218-0.0987 0.411-0.293 0.51-0.514 0.0766-0.171 0.0846-0.219 0.0727-0.446-0.0145-0.277-0.108-0.501-0.271-0.653-0.0452-0.0421-0.912-0.685-1.93-1.43-1.01-0.744-1.88-1.38-1.91-1.41l-0.0705-0.0547 0.349-0.226c2.24-1.45 4.7-2.23 6.51-2.06 1.02 0.0914 1.84 0.377 2.66 0.923 1.25 0.832 2.4 2.38 2.89 3.88 0.258 0.787 0.347 1.37 0.347 2.28-9.4e-5 0.993-0.137 1.9-0.474 3.12-0.0708 0.258-1.01 3.01-2.1 6.12-1.08 3.11-2.07 5.99-2.2 6.39-0.413 1.33-0.697 2.09-1.04 2.76-0.392 0.782-0.692 1.2-1.31 1.83l-0.416 0.422-0.175-0.188c-0.285-0.305-0.738-0.856-1.38-1.68-1.14-1.47-1.76-2.17-2.33-2.68-1.05-0.929-2-1.35-3.05-1.35-1.24-0.0018-2.37 0.58-3.62 1.87-0.516 0.53-0.86 0.935-1.74 2.05-0.882 1.12-1.6 1.96-1.67 1.96-0.013 0-0.113-0.0951-0.223-0.211z"></path></clipPath></svg>